<mxfile host="app.diagrams.net" modified="2023-02-17T10:55:33.705Z" agent="5.0 (Macintosh; Intel Mac OS X 10_15_7) AppleWebKit/537.36 (KHTML, like Gecko) Chrome/112.0.0.0 Safari/537.36" etag="iLegIuI9g2ZbyasOa0Sq" version="20.8.17" type="github">
  <diagram name="第 1 页" id="yFnna2RPU-btGIWQPBTS">
    <mxGraphModel dx="1505" dy="840" grid="0" gridSize="10" guides="1" tooltips="1" connect="1" arrows="1" fold="1" page="1" pageScale="1" pageWidth="3300" pageHeight="4681" math="0" shadow="0">
      <root>
        <mxCell id="0" />
        <mxCell id="1" parent="0" />
      </root>
    </mxGraphModel>
  </diagram>
</mxfile>
